<?xml version="1.0" encoding="utf-8" standalone="no"?>
<!DOCTYPE svg PUBLIC "-//W3C//DTD SVG 1.1//EN"
  "http://www.w3.org/Graphics/SVG/1.1/DTD/svg11.dtd">
<!-- Created with matplotlib (https://matplotlib.org/) -->
<svg height="720pt" version="1.1" viewBox="0 0 1080 720" width="1080pt" xmlns="http://www.w3.org/2000/svg" xmlns:xlink="http://www.w3.org/1999/xlink">
 <defs>
  <style type="text/css">
*{stroke-linecap:butt;stroke-linejoin:round;}
  </style>
 </defs>
 <g id="figure_1">
  <g id="patch_1">
   <path d="M 0 720 
L 1080 720 
L 1080 0 
L 0 0 
z
" style="fill:#ffffff;"/>
  </g>
  <g id="axes_1">
   <g id="patch_2">
    <path d="M 135 630 
L 972 630 
L 972 86.4 
L 135 86.4 
z
" style="fill:#ffffff;"/>
   </g>
   <g id="matplotlib.axis_1">
    <g id="xtick_1">
     <g id="line2d_1">
      <defs>
       <path d="M 0 0 
L 0 3.5 
" id="m5d1e78c70d" style="stroke:#000000;stroke-width:0.8;"/>
      </defs>
      <g>
       <use style="stroke:#000000;stroke-width:0.8;" x="213.668533" xlink:href="#m5d1e78c70d" y="630"/>
      </g>
     </g>
     <g id="text_1">
      <!-- 7.0 -->
      <defs>
       <path d="M 8.203125 72.90625 
L 55.078125 72.90625 
L 55.078125 68.703125 
L 28.609375 0 
L 18.3125 0 
L 43.21875 64.59375 
L 8.203125 64.59375 
z
" id="DejaVuSans-55"/>
       <path d="M 10.6875 12.40625 
L 21 12.40625 
L 21 0 
L 10.6875 0 
z
" id="DejaVuSans-46"/>
       <path d="M 31.78125 66.40625 
Q 24.171875 66.40625 20.328125 58.90625 
Q 16.5 51.421875 16.5 36.375 
Q 16.5 21.390625 20.328125 13.890625 
Q 24.171875 6.390625 31.78125 6.390625 
Q 39.453125 6.390625 43.28125 13.890625 
Q 47.125 21.390625 47.125 36.375 
Q 47.125 51.421875 43.28125 58.90625 
Q 39.453125 66.40625 31.78125 66.40625 
z
M 31.78125 74.21875 
Q 44.046875 74.21875 50.515625 64.515625 
Q 56.984375 54.828125 56.984375 36.375 
Q 56.984375 17.96875 50.515625 8.265625 
Q 44.046875 -1.421875 31.78125 -1.421875 
Q 19.53125 -1.421875 13.0625 8.265625 
Q 6.59375 17.96875 6.59375 36.375 
Q 6.59375 54.828125 13.0625 64.515625 
Q 19.53125 74.21875 31.78125 74.21875 
z
" id="DejaVuSans-48"/>
      </defs>
      <g transform="translate(205.71697 644.598438)scale(0.1 -0.1)">
       <use xlink:href="#DejaVuSans-55"/>
       <use x="63.623047" xlink:href="#DejaVuSans-46"/>
       <use x="95.410156" xlink:href="#DejaVuSans-48"/>
      </g>
     </g>
    </g>
    <g id="xtick_2">
     <g id="line2d_2">
      <g>
       <use style="stroke:#000000;stroke-width:0.8;" x="356.159217" xlink:href="#m5d1e78c70d" y="630"/>
      </g>
     </g>
     <g id="text_2">
      <!-- 7.5 -->
      <defs>
       <path d="M 10.796875 72.90625 
L 49.515625 72.90625 
L 49.515625 64.59375 
L 19.828125 64.59375 
L 19.828125 46.734375 
Q 21.96875 47.46875 24.109375 47.828125 
Q 26.265625 48.1875 28.421875 48.1875 
Q 40.625 48.1875 47.75 41.5 
Q 54.890625 34.8125 54.890625 23.390625 
Q 54.890625 11.625 47.5625 5.09375 
Q 40.234375 -1.421875 26.90625 -1.421875 
Q 22.3125 -1.421875 17.546875 -0.640625 
Q 12.796875 0.140625 7.71875 1.703125 
L 7.71875 11.625 
Q 12.109375 9.234375 16.796875 8.0625 
Q 21.484375 6.890625 26.703125 6.890625 
Q 35.15625 6.890625 40.078125 11.328125 
Q 45.015625 15.765625 45.015625 23.390625 
Q 45.015625 31 40.078125 35.4375 
Q 35.15625 39.890625 26.703125 39.890625 
Q 22.75 39.890625 18.8125 39.015625 
Q 14.890625 38.140625 10.796875 36.28125 
z
" id="DejaVuSans-53"/>
      </defs>
      <g transform="translate(348.207654 644.598438)scale(0.1 -0.1)">
       <use xlink:href="#DejaVuSans-55"/>
       <use x="63.623047" xlink:href="#DejaVuSans-46"/>
       <use x="95.410156" xlink:href="#DejaVuSans-53"/>
      </g>
     </g>
    </g>
    <g id="xtick_3">
     <g id="line2d_3">
      <g>
       <use style="stroke:#000000;stroke-width:0.8;" x="498.649901" xlink:href="#m5d1e78c70d" y="630"/>
      </g>
     </g>
     <g id="text_3">
      <!-- 8.0 -->
      <defs>
       <path d="M 31.78125 34.625 
Q 24.75 34.625 20.71875 30.859375 
Q 16.703125 27.09375 16.703125 20.515625 
Q 16.703125 13.921875 20.71875 10.15625 
Q 24.75 6.390625 31.78125 6.390625 
Q 38.8125 6.390625 42.859375 10.171875 
Q 46.921875 13.96875 46.921875 20.515625 
Q 46.921875 27.09375 42.890625 30.859375 
Q 38.875 34.625 31.78125 34.625 
z
M 21.921875 38.8125 
Q 15.578125 40.375 12.03125 44.71875 
Q 8.5 49.078125 8.5 55.328125 
Q 8.5 64.0625 14.71875 69.140625 
Q 20.953125 74.21875 31.78125 74.21875 
Q 42.671875 74.21875 48.875 69.140625 
Q 55.078125 64.0625 55.078125 55.328125 
Q 55.078125 49.078125 51.53125 44.71875 
Q 48 40.375 41.703125 38.8125 
Q 48.828125 37.15625 52.796875 32.3125 
Q 56.78125 27.484375 56.78125 20.515625 
Q 56.78125 9.90625 50.3125 4.234375 
Q 43.84375 -1.421875 31.78125 -1.421875 
Q 19.734375 -1.421875 13.25 4.234375 
Q 6.78125 9.90625 6.78125 20.515625 
Q 6.78125 27.484375 10.78125 32.3125 
Q 14.796875 37.15625 21.921875 38.8125 
z
M 18.3125 54.390625 
Q 18.3125 48.734375 21.84375 45.5625 
Q 25.390625 42.390625 31.78125 42.390625 
Q 38.140625 42.390625 41.71875 45.5625 
Q 45.3125 48.734375 45.3125 54.390625 
Q 45.3125 60.0625 41.71875 63.234375 
Q 38.140625 66.40625 31.78125 66.40625 
Q 25.390625 66.40625 21.84375 63.234375 
Q 18.3125 60.0625 18.3125 54.390625 
z
" id="DejaVuSans-56"/>
      </defs>
      <g transform="translate(490.698338 644.598438)scale(0.1 -0.1)">
       <use xlink:href="#DejaVuSans-56"/>
       <use x="63.623047" xlink:href="#DejaVuSans-46"/>
       <use x="95.410156" xlink:href="#DejaVuSans-48"/>
      </g>
     </g>
    </g>
    <g id="xtick_4">
     <g id="line2d_4">
      <g>
       <use style="stroke:#000000;stroke-width:0.8;" x="641.140585" xlink:href="#m5d1e78c70d" y="630"/>
      </g>
     </g>
     <g id="text_4">
      <!-- 8.5 -->
      <g transform="translate(633.189022 644.598438)scale(0.1 -0.1)">
       <use xlink:href="#DejaVuSans-56"/>
       <use x="63.623047" xlink:href="#DejaVuSans-46"/>
       <use x="95.410156" xlink:href="#DejaVuSans-53"/>
      </g>
     </g>
    </g>
    <g id="xtick_5">
     <g id="line2d_5">
      <g>
       <use style="stroke:#000000;stroke-width:0.8;" x="783.631268" xlink:href="#m5d1e78c70d" y="630"/>
      </g>
     </g>
     <g id="text_5">
      <!-- 9.0 -->
      <defs>
       <path d="M 10.984375 1.515625 
L 10.984375 10.5 
Q 14.703125 8.734375 18.5 7.8125 
Q 22.3125 6.890625 25.984375 6.890625 
Q 35.75 6.890625 40.890625 13.453125 
Q 46.046875 20.015625 46.78125 33.40625 
Q 43.953125 29.203125 39.59375 26.953125 
Q 35.25 24.703125 29.984375 24.703125 
Q 19.046875 24.703125 12.671875 31.3125 
Q 6.296875 37.9375 6.296875 49.421875 
Q 6.296875 60.640625 12.9375 67.421875 
Q 19.578125 74.21875 30.609375 74.21875 
Q 43.265625 74.21875 49.921875 64.515625 
Q 56.59375 54.828125 56.59375 36.375 
Q 56.59375 19.140625 48.40625 8.859375 
Q 40.234375 -1.421875 26.421875 -1.421875 
Q 22.703125 -1.421875 18.890625 -0.6875 
Q 15.09375 0.046875 10.984375 1.515625 
z
M 30.609375 32.421875 
Q 37.25 32.421875 41.125 36.953125 
Q 45.015625 41.5 45.015625 49.421875 
Q 45.015625 57.28125 41.125 61.84375 
Q 37.25 66.40625 30.609375 66.40625 
Q 23.96875 66.40625 20.09375 61.84375 
Q 16.21875 57.28125 16.21875 49.421875 
Q 16.21875 41.5 20.09375 36.953125 
Q 23.96875 32.421875 30.609375 32.421875 
z
" id="DejaVuSans-57"/>
      </defs>
      <g transform="translate(775.679706 644.598438)scale(0.1 -0.1)">
       <use xlink:href="#DejaVuSans-57"/>
       <use x="63.623047" xlink:href="#DejaVuSans-46"/>
       <use x="95.410156" xlink:href="#DejaVuSans-48"/>
      </g>
     </g>
    </g>
    <g id="xtick_6">
     <g id="line2d_6">
      <g>
       <use style="stroke:#000000;stroke-width:0.8;" x="926.121952" xlink:href="#m5d1e78c70d" y="630"/>
      </g>
     </g>
     <g id="text_6">
      <!-- 9.5 -->
      <g transform="translate(918.17039 644.598438)scale(0.1 -0.1)">
       <use xlink:href="#DejaVuSans-57"/>
       <use x="63.623047" xlink:href="#DejaVuSans-46"/>
       <use x="95.410156" xlink:href="#DejaVuSans-53"/>
      </g>
     </g>
    </g>
    <g id="text_7">
     <!-- IMDB_Rating -->
     <defs>
      <path d="M 9.8125 72.90625 
L 19.671875 72.90625 
L 19.671875 0 
L 9.8125 0 
z
" id="DejaVuSans-73"/>
      <path d="M 9.8125 72.90625 
L 24.515625 72.90625 
L 43.109375 23.296875 
L 61.8125 72.90625 
L 76.515625 72.90625 
L 76.515625 0 
L 66.890625 0 
L 66.890625 64.015625 
L 48.09375 14.015625 
L 38.1875 14.015625 
L 19.390625 64.015625 
L 19.390625 0 
L 9.8125 0 
z
" id="DejaVuSans-77"/>
      <path d="M 19.671875 64.796875 
L 19.671875 8.109375 
L 31.59375 8.109375 
Q 46.6875 8.109375 53.6875 14.9375 
Q 60.6875 21.78125 60.6875 36.53125 
Q 60.6875 51.171875 53.6875 57.984375 
Q 46.6875 64.796875 31.59375 64.796875 
z
M 9.8125 72.90625 
L 30.078125 72.90625 
Q 51.265625 72.90625 61.171875 64.09375 
Q 71.09375 55.28125 71.09375 36.53125 
Q 71.09375 17.671875 61.125 8.828125 
Q 51.171875 0 30.078125 0 
L 9.8125 0 
z
" id="DejaVuSans-68"/>
      <path d="M 19.671875 34.8125 
L 19.671875 8.109375 
L 35.5 8.109375 
Q 43.453125 8.109375 47.28125 11.40625 
Q 51.125 14.703125 51.125 21.484375 
Q 51.125 28.328125 47.28125 31.5625 
Q 43.453125 34.8125 35.5 34.8125 
z
M 19.671875 64.796875 
L 19.671875 42.828125 
L 34.28125 42.828125 
Q 41.5 42.828125 45.03125 45.53125 
Q 48.578125 48.25 48.578125 53.8125 
Q 48.578125 59.328125 45.03125 62.0625 
Q 41.5 64.796875 34.28125 64.796875 
z
M 9.8125 72.90625 
L 35.015625 72.90625 
Q 46.296875 72.90625 52.390625 68.21875 
Q 58.5 63.53125 58.5 54.890625 
Q 58.5 48.1875 55.375 44.234375 
Q 52.25 40.28125 46.1875 39.3125 
Q 53.46875 37.75 57.5 32.78125 
Q 61.53125 27.828125 61.53125 20.40625 
Q 61.53125 10.640625 54.890625 5.3125 
Q 48.25 0 35.984375 0 
L 9.8125 0 
z
" id="DejaVuSans-66"/>
      <path d="M 50.984375 -16.609375 
L 50.984375 -23.578125 
L -0.984375 -23.578125 
L -0.984375 -16.609375 
z
" id="DejaVuSans-95"/>
      <path d="M 44.390625 34.1875 
Q 47.5625 33.109375 50.5625 29.59375 
Q 53.5625 26.078125 56.59375 19.921875 
L 66.609375 0 
L 56 0 
L 46.6875 18.703125 
Q 43.0625 26.03125 39.671875 28.421875 
Q 36.28125 30.8125 30.421875 30.8125 
L 19.671875 30.8125 
L 19.671875 0 
L 9.8125 0 
L 9.8125 72.90625 
L 32.078125 72.90625 
Q 44.578125 72.90625 50.734375 67.671875 
Q 56.890625 62.453125 56.890625 51.90625 
Q 56.890625 45.015625 53.6875 40.46875 
Q 50.484375 35.9375 44.390625 34.1875 
z
M 19.671875 64.796875 
L 19.671875 38.921875 
L 32.078125 38.921875 
Q 39.203125 38.921875 42.84375 42.21875 
Q 46.484375 45.515625 46.484375 51.90625 
Q 46.484375 58.296875 42.84375 61.546875 
Q 39.203125 64.796875 32.078125 64.796875 
z
" id="DejaVuSans-82"/>
      <path d="M 34.28125 27.484375 
Q 23.390625 27.484375 19.1875 25 
Q 14.984375 22.515625 14.984375 16.5 
Q 14.984375 11.71875 18.140625 8.90625 
Q 21.296875 6.109375 26.703125 6.109375 
Q 34.1875 6.109375 38.703125 11.40625 
Q 43.21875 16.703125 43.21875 25.484375 
L 43.21875 27.484375 
z
M 52.203125 31.203125 
L 52.203125 0 
L 43.21875 0 
L 43.21875 8.296875 
Q 40.140625 3.328125 35.546875 0.953125 
Q 30.953125 -1.421875 24.3125 -1.421875 
Q 15.921875 -1.421875 10.953125 3.296875 
Q 6 8.015625 6 15.921875 
Q 6 25.140625 12.171875 29.828125 
Q 18.359375 34.515625 30.609375 34.515625 
L 43.21875 34.515625 
L 43.21875 35.40625 
Q 43.21875 41.609375 39.140625 45 
Q 35.0625 48.390625 27.6875 48.390625 
Q 23 48.390625 18.546875 47.265625 
Q 14.109375 46.140625 10.015625 43.890625 
L 10.015625 52.203125 
Q 14.9375 54.109375 19.578125 55.046875 
Q 24.21875 56 28.609375 56 
Q 40.484375 56 46.34375 49.84375 
Q 52.203125 43.703125 52.203125 31.203125 
z
" id="DejaVuSans-97"/>
      <path d="M 18.3125 70.21875 
L 18.3125 54.6875 
L 36.8125 54.6875 
L 36.8125 47.703125 
L 18.3125 47.703125 
L 18.3125 18.015625 
Q 18.3125 11.328125 20.140625 9.421875 
Q 21.96875 7.515625 27.59375 7.515625 
L 36.8125 7.515625 
L 36.8125 0 
L 27.59375 0 
Q 17.1875 0 13.234375 3.875 
Q 9.28125 7.765625 9.28125 18.015625 
L 9.28125 47.703125 
L 2.6875 47.703125 
L 2.6875 54.6875 
L 9.28125 54.6875 
L 9.28125 70.21875 
z
" id="DejaVuSans-116"/>
      <path d="M 9.421875 54.6875 
L 18.40625 54.6875 
L 18.40625 0 
L 9.421875 0 
z
M 9.421875 75.984375 
L 18.40625 75.984375 
L 18.40625 64.59375 
L 9.421875 64.59375 
z
" id="DejaVuSans-105"/>
      <path d="M 54.890625 33.015625 
L 54.890625 0 
L 45.90625 0 
L 45.90625 32.71875 
Q 45.90625 40.484375 42.875 44.328125 
Q 39.84375 48.1875 33.796875 48.1875 
Q 26.515625 48.1875 22.3125 43.546875 
Q 18.109375 38.921875 18.109375 30.90625 
L 18.109375 0 
L 9.078125 0 
L 9.078125 54.6875 
L 18.109375 54.6875 
L 18.109375 46.1875 
Q 21.34375 51.125 25.703125 53.5625 
Q 30.078125 56 35.796875 56 
Q 45.21875 56 50.046875 50.171875 
Q 54.890625 44.34375 54.890625 33.015625 
z
" id="DejaVuSans-110"/>
      <path d="M 45.40625 27.984375 
Q 45.40625 37.75 41.375 43.109375 
Q 37.359375 48.484375 30.078125 48.484375 
Q 22.859375 48.484375 18.828125 43.109375 
Q 14.796875 37.75 14.796875 27.984375 
Q 14.796875 18.265625 18.828125 12.890625 
Q 22.859375 7.515625 30.078125 7.515625 
Q 37.359375 7.515625 41.375 12.890625 
Q 45.40625 18.265625 45.40625 27.984375 
z
M 54.390625 6.78125 
Q 54.390625 -7.171875 48.1875 -13.984375 
Q 42 -20.796875 29.203125 -20.796875 
Q 24.46875 -20.796875 20.265625 -20.09375 
Q 16.0625 -19.390625 12.109375 -17.921875 
L 12.109375 -9.1875 
Q 16.0625 -11.328125 19.921875 -12.34375 
Q 23.78125 -13.375 27.78125 -13.375 
Q 36.625 -13.375 41.015625 -8.765625 
Q 45.40625 -4.15625 45.40625 5.171875 
L 45.40625 9.625 
Q 42.625 4.78125 38.28125 2.390625 
Q 33.9375 0 27.875 0 
Q 17.828125 0 11.671875 7.65625 
Q 5.515625 15.328125 5.515625 27.984375 
Q 5.515625 40.671875 11.671875 48.328125 
Q 17.828125 56 27.875 56 
Q 33.9375 56 38.28125 53.609375 
Q 42.625 51.21875 45.40625 46.390625 
L 45.40625 54.6875 
L 54.390625 54.6875 
z
" id="DejaVuSans-103"/>
     </defs>
     <g transform="translate(521.8125 658.276562)scale(0.1 -0.1)">
      <use xlink:href="#DejaVuSans-73"/>
      <use x="29.492188" xlink:href="#DejaVuSans-77"/>
      <use x="115.771484" xlink:href="#DejaVuSans-68"/>
      <use x="192.773438" xlink:href="#DejaVuSans-66"/>
      <use x="261.376953" xlink:href="#DejaVuSans-95"/>
      <use x="311.376953" xlink:href="#DejaVuSans-82"/>
      <use x="378.609375" xlink:href="#DejaVuSans-97"/>
      <use x="439.888672" xlink:href="#DejaVuSans-116"/>
      <use x="479.097656" xlink:href="#DejaVuSans-105"/>
      <use x="506.880859" xlink:href="#DejaVuSans-110"/>
      <use x="570.259766" xlink:href="#DejaVuSans-103"/>
     </g>
    </g>
   </g>
   <g id="matplotlib.axis_2">
    <g id="ytick_1">
     <g id="line2d_7">
      <defs>
       <path d="M 0 0 
L -3.5 0 
" id="m3e8a4866c9" style="stroke:#000000;stroke-width:0.8;"/>
      </defs>
      <g>
       <use style="stroke:#000000;stroke-width:0.8;" x="135" xlink:href="#m3e8a4866c9" y="630"/>
      </g>
     </g>
     <g id="text_8">
      <!-- 0.0 -->
      <g transform="translate(112.096875 633.799219)scale(0.1 -0.1)">
       <use xlink:href="#DejaVuSans-48"/>
       <use x="63.623047" xlink:href="#DejaVuSans-46"/>
       <use x="95.410156" xlink:href="#DejaVuSans-48"/>
      </g>
     </g>
    </g>
    <g id="ytick_2">
     <g id="line2d_8">
      <g>
       <use style="stroke:#000000;stroke-width:0.8;" x="135" xlink:href="#m3e8a4866c9" y="537.94312"/>
      </g>
     </g>
     <g id="text_9">
      <!-- 0.2 -->
      <defs>
       <path d="M 19.1875 8.296875 
L 53.609375 8.296875 
L 53.609375 0 
L 7.328125 0 
L 7.328125 8.296875 
Q 12.9375 14.109375 22.625 23.890625 
Q 32.328125 33.6875 34.8125 36.53125 
Q 39.546875 41.84375 41.421875 45.53125 
Q 43.3125 49.21875 43.3125 52.78125 
Q 43.3125 58.59375 39.234375 62.25 
Q 35.15625 65.921875 28.609375 65.921875 
Q 23.96875 65.921875 18.8125 64.3125 
Q 13.671875 62.703125 7.8125 59.421875 
L 7.8125 69.390625 
Q 13.765625 71.78125 18.9375 73 
Q 24.125 74.21875 28.421875 74.21875 
Q 39.75 74.21875 46.484375 68.546875 
Q 53.21875 62.890625 53.21875 53.421875 
Q 53.21875 48.921875 51.53125 44.890625 
Q 49.859375 40.875 45.40625 35.40625 
Q 44.1875 33.984375 37.640625 27.21875 
Q 31.109375 20.453125 19.1875 8.296875 
z
" id="DejaVuSans-50"/>
      </defs>
      <g transform="translate(112.096875 541.742338)scale(0.1 -0.1)">
       <use xlink:href="#DejaVuSans-48"/>
       <use x="63.623047" xlink:href="#DejaVuSans-46"/>
       <use x="95.410156" xlink:href="#DejaVuSans-50"/>
      </g>
     </g>
    </g>
    <g id="ytick_3">
     <g id="line2d_9">
      <g>
       <use style="stroke:#000000;stroke-width:0.8;" x="135" xlink:href="#m3e8a4866c9" y="445.886239"/>
      </g>
     </g>
     <g id="text_10">
      <!-- 0.4 -->
      <defs>
       <path d="M 37.796875 64.3125 
L 12.890625 25.390625 
L 37.796875 25.390625 
z
M 35.203125 72.90625 
L 47.609375 72.90625 
L 47.609375 25.390625 
L 58.015625 25.390625 
L 58.015625 17.1875 
L 47.609375 17.1875 
L 47.609375 0 
L 37.796875 0 
L 37.796875 17.1875 
L 4.890625 17.1875 
L 4.890625 26.703125 
z
" id="DejaVuSans-52"/>
      </defs>
      <g transform="translate(112.096875 449.685458)scale(0.1 -0.1)">
       <use xlink:href="#DejaVuSans-48"/>
       <use x="63.623047" xlink:href="#DejaVuSans-46"/>
       <use x="95.410156" xlink:href="#DejaVuSans-52"/>
      </g>
     </g>
    </g>
    <g id="ytick_4">
     <g id="line2d_10">
      <g>
       <use style="stroke:#000000;stroke-width:0.8;" x="135" xlink:href="#m3e8a4866c9" y="353.829359"/>
      </g>
     </g>
     <g id="text_11">
      <!-- 0.6 -->
      <defs>
       <path d="M 33.015625 40.375 
Q 26.375 40.375 22.484375 35.828125 
Q 18.609375 31.296875 18.609375 23.390625 
Q 18.609375 15.53125 22.484375 10.953125 
Q 26.375 6.390625 33.015625 6.390625 
Q 39.65625 6.390625 43.53125 10.953125 
Q 47.40625 15.53125 47.40625 23.390625 
Q 47.40625 31.296875 43.53125 35.828125 
Q 39.65625 40.375 33.015625 40.375 
z
M 52.59375 71.296875 
L 52.59375 62.3125 
Q 48.875 64.0625 45.09375 64.984375 
Q 41.3125 65.921875 37.59375 65.921875 
Q 27.828125 65.921875 22.671875 59.328125 
Q 17.53125 52.734375 16.796875 39.40625 
Q 19.671875 43.65625 24.015625 45.921875 
Q 28.375 48.1875 33.59375 48.1875 
Q 44.578125 48.1875 50.953125 41.515625 
Q 57.328125 34.859375 57.328125 23.390625 
Q 57.328125 12.15625 50.6875 5.359375 
Q 44.046875 -1.421875 33.015625 -1.421875 
Q 20.359375 -1.421875 13.671875 8.265625 
Q 6.984375 17.96875 6.984375 36.375 
Q 6.984375 53.65625 15.1875 63.9375 
Q 23.390625 74.21875 37.203125 74.21875 
Q 40.921875 74.21875 44.703125 73.484375 
Q 48.484375 72.75 52.59375 71.296875 
z
" id="DejaVuSans-54"/>
      </defs>
      <g transform="translate(112.096875 357.628578)scale(0.1 -0.1)">
       <use xlink:href="#DejaVuSans-48"/>
       <use x="63.623047" xlink:href="#DejaVuSans-46"/>
       <use x="95.410156" xlink:href="#DejaVuSans-54"/>
      </g>
     </g>
    </g>
    <g id="ytick_5">
     <g id="line2d_11">
      <g>
       <use style="stroke:#000000;stroke-width:0.8;" x="135" xlink:href="#m3e8a4866c9" y="261.772478"/>
      </g>
     </g>
     <g id="text_12">
      <!-- 0.8 -->
      <g transform="translate(112.096875 265.571697)scale(0.1 -0.1)">
       <use xlink:href="#DejaVuSans-48"/>
       <use x="63.623047" xlink:href="#DejaVuSans-46"/>
       <use x="95.410156" xlink:href="#DejaVuSans-56"/>
      </g>
     </g>
    </g>
    <g id="ytick_6">
     <g id="line2d_12">
      <g>
       <use style="stroke:#000000;stroke-width:0.8;" x="135" xlink:href="#m3e8a4866c9" y="169.715598"/>
      </g>
     </g>
     <g id="text_13">
      <!-- 1.0 -->
      <defs>
       <path d="M 12.40625 8.296875 
L 28.515625 8.296875 
L 28.515625 63.921875 
L 10.984375 60.40625 
L 10.984375 69.390625 
L 28.421875 72.90625 
L 38.28125 72.90625 
L 38.28125 8.296875 
L 54.390625 8.296875 
L 54.390625 0 
L 12.40625 0 
z
" id="DejaVuSans-49"/>
      </defs>
      <g transform="translate(112.096875 173.514817)scale(0.1 -0.1)">
       <use xlink:href="#DejaVuSans-49"/>
       <use x="63.623047" xlink:href="#DejaVuSans-46"/>
       <use x="95.410156" xlink:href="#DejaVuSans-48"/>
      </g>
     </g>
    </g>
    <g id="text_14">
     <!-- Density -->
     <defs>
      <path d="M 56.203125 29.59375 
L 56.203125 25.203125 
L 14.890625 25.203125 
Q 15.484375 15.921875 20.484375 11.0625 
Q 25.484375 6.203125 34.421875 6.203125 
Q 39.59375 6.203125 44.453125 7.46875 
Q 49.3125 8.734375 54.109375 11.28125 
L 54.109375 2.78125 
Q 49.265625 0.734375 44.1875 -0.34375 
Q 39.109375 -1.421875 33.890625 -1.421875 
Q 20.796875 -1.421875 13.15625 6.1875 
Q 5.515625 13.8125 5.515625 26.8125 
Q 5.515625 40.234375 12.765625 48.109375 
Q 20.015625 56 32.328125 56 
Q 43.359375 56 49.78125 48.890625 
Q 56.203125 41.796875 56.203125 29.59375 
z
M 47.21875 32.234375 
Q 47.125 39.59375 43.09375 43.984375 
Q 39.0625 48.390625 32.421875 48.390625 
Q 24.90625 48.390625 20.390625 44.140625 
Q 15.875 39.890625 15.1875 32.171875 
z
" id="DejaVuSans-101"/>
      <path d="M 44.28125 53.078125 
L 44.28125 44.578125 
Q 40.484375 46.53125 36.375 47.5 
Q 32.28125 48.484375 27.875 48.484375 
Q 21.1875 48.484375 17.84375 46.4375 
Q 14.5 44.390625 14.5 40.28125 
Q 14.5 37.15625 16.890625 35.375 
Q 19.28125 33.59375 26.515625 31.984375 
L 29.59375 31.296875 
Q 39.15625 29.25 43.1875 25.515625 
Q 47.21875 21.78125 47.21875 15.09375 
Q 47.21875 7.46875 41.1875 3.015625 
Q 35.15625 -1.421875 24.609375 -1.421875 
Q 20.21875 -1.421875 15.453125 -0.5625 
Q 10.6875 0.296875 5.421875 2 
L 5.421875 11.28125 
Q 10.40625 8.6875 15.234375 7.390625 
Q 20.0625 6.109375 24.8125 6.109375 
Q 31.15625 6.109375 34.5625 8.28125 
Q 37.984375 10.453125 37.984375 14.40625 
Q 37.984375 18.0625 35.515625 20.015625 
Q 33.0625 21.96875 24.703125 23.78125 
L 21.578125 24.515625 
Q 13.234375 26.265625 9.515625 29.90625 
Q 5.8125 33.546875 5.8125 39.890625 
Q 5.8125 47.609375 11.28125 51.796875 
Q 16.75 56 26.8125 56 
Q 31.78125 56 36.171875 55.265625 
Q 40.578125 54.546875 44.28125 53.078125 
z
" id="DejaVuSans-115"/>
      <path d="M 32.171875 -5.078125 
Q 28.375 -14.84375 24.75 -17.8125 
Q 21.140625 -20.796875 15.09375 -20.796875 
L 7.90625 -20.796875 
L 7.90625 -13.28125 
L 13.1875 -13.28125 
Q 16.890625 -13.28125 18.9375 -11.515625 
Q 21 -9.765625 23.484375 -3.21875 
L 25.09375 0.875 
L 2.984375 54.6875 
L 12.5 54.6875 
L 29.59375 11.921875 
L 46.6875 54.6875 
L 56.203125 54.6875 
z
" id="DejaVuSans-121"/>
     </defs>
     <g transform="translate(106.017187 377.208594)rotate(-90)scale(0.1 -0.1)">
      <use xlink:href="#DejaVuSans-68"/>
      <use x="77.001953" xlink:href="#DejaVuSans-101"/>
      <use x="138.525391" xlink:href="#DejaVuSans-110"/>
      <use x="201.904297" xlink:href="#DejaVuSans-115"/>
      <use x="254.003906" xlink:href="#DejaVuSans-105"/>
      <use x="281.787109" xlink:href="#DejaVuSans-116"/>
      <use x="320.996094" xlink:href="#DejaVuSans-121"/>
     </g>
    </g>
   </g>
   <g id="line2d_13">
    <path clip-path="url(#pe0c075370c)" d="M 360.527508 629.966794 
L 372.625869 629.791885 
L 380.691443 629.454604 
L 387.412754 628.958569 
L 394.806197 628.18949 
L 411.609476 626.340294 
L 418.330788 625.911351 
L 425.0521 625.723486 
L 431.773411 625.755943 
L 438.494723 626.013944 
L 445.216035 626.516312 
L 452.609478 627.307655 
L 467.396363 628.958569 
L 474.117675 629.454604 
L 481.511118 629.772699 
L 490.920954 629.942035 
L 494.28161 629.966794 
L 494.28161 629.966794 
" style="fill:none;stroke:#f561dd;stroke-linecap:square;stroke-width:1.5;"/>
   </g>
   <g id="line2d_14">
    <path clip-path="url(#pe0c075370c)" d="M 269.48714 629.98786 
L 319.165682 629.840572 
L 351.564731 629.519341 
L 420.682702 628.71545 
L 457.401625 628.396921 
L 479.000991 627.953366 
L 524.35966 626.861776 
L 539.479216 626.819902 
L 554.598772 627.039228 
L 571.878265 627.550906 
L 625.87668 629.366127 
L 647.476046 629.733151 
L 673.395286 629.926194 
L 699.314525 629.984449 
L 699.314525 629.984449 
" style="fill:none;stroke:#39a7d0;stroke-linecap:square;stroke-width:1.5;"/>
   </g>
   <g id="line2d_15">
    <path clip-path="url(#pe0c075370c)" d="M 263.591939 629.98654 
L 310.839771 629.837693 
L 336.826078 629.55367 
L 362.812385 629.038652 
L 440.771307 627.247525 
L 471.482398 626.961957 
L 535.26697 626.632072 
L 558.890886 626.709813 
L 580.15241 627.009071 
L 601.413934 627.544385 
L 669.92329 629.50193 
L 693.547205 629.806526 
L 724.258296 629.95909 
L 733.707862 629.976467 
L 733.707862 629.976467 
" style="fill:none;stroke:#36ada4;stroke-linecap:square;stroke-width:1.5;"/>
   </g>
   <g id="line2d_16">
    <path clip-path="url(#pe0c075370c)" d="M 219.691725 629.985491 
L 267.352921 629.844395 
L 295.388918 629.545842 
L 317.817716 629.096496 
L 343.050114 628.354059 
L 399.122109 626.573081 
L 418.747308 626.226761 
L 441.176106 626.067728 
L 469.212103 626.114982 
L 514.069699 626.441773 
L 572.945294 627.0833 
L 606.588491 627.656698 
L 648.642488 628.642532 
L 682.285685 629.357747 
L 710.321682 629.730768 
L 743.96488 629.930659 
L 777.608077 629.987443 
L 777.608077 629.987443 
" style="fill:none;stroke:#34af8e;stroke-linecap:square;stroke-width:1.5;"/>
   </g>
   <g id="line2d_17">
    <path clip-path="url(#pe0c075370c)" d="M 343.178317 629.972656 
L 358.529934 629.824041 
L 367.05861 629.573473 
L 373.881551 629.191856 
L 378.998756 628.743205 
L 384.115962 628.104773 
L 389.233168 627.226351 
L 394.350373 626.059412 
L 399.467579 624.566667 
L 404.584784 622.735067 
L 409.70199 620.590206 
L 416.524931 617.382224 
L 425.053607 613.295364 
L 430.170812 611.13251 
L 433.582283 609.923987 
L 436.993753 608.949706 
L 440.405223 608.232361 
L 443.816694 607.774705 
L 447.228164 607.558069 
L 450.639635 607.543151 
L 455.75684 607.770804 
L 464.285516 608.208489 
L 467.696987 608.188268 
L 471.108457 607.963378 
L 474.519927 607.491584 
L 477.931398 606.748174 
L 481.342868 605.726076 
L 484.754338 604.434435 
L 488.165809 602.896067 
L 491.577279 601.144325 
L 496.694485 598.206866 
L 503.517426 593.953714 
L 512.046102 588.627715 
L 517.163307 585.701193 
L 520.574777 583.952623 
L 523.986248 582.413943 
L 527.397718 581.124248 
L 530.809189 580.120399 
L 534.220659 579.43633 
L 537.632129 579.101979 
L 541.0436 579.141815 
L 544.45507 579.572942 
L 547.866541 580.402919 
L 551.278011 581.627544 
L 554.689481 583.228983 
L 558.100952 585.174696 
L 561.512422 587.417546 
L 564.923892 589.897388 
L 570.041098 593.906601 
L 580.275509 602.043286 
L 585.392715 605.736912 
L 588.804185 607.964242 
L 592.215656 609.985274 
L 595.627126 611.802097 
L 599.038596 613.429749 
L 604.155802 615.571179 
L 609.273007 617.441845 
L 616.095948 619.675342 
L 624.624624 622.236164 
L 633.1533 624.569651 
L 639.976241 626.186468 
L 645.093447 627.20253 
L 650.210652 628.030446 
L 655.327858 628.671487 
L 662.150798 629.266408 
L 668.973739 629.626323 
L 677.502415 629.856771 
L 682.619621 629.924314 
L 682.619621 629.924314 
" style="fill:none;stroke:#32b166;stroke-linecap:square;stroke-width:1.5;"/>
   </g>
   <g id="line2d_18">
    <path clip-path="url(#pe0c075370c)" d="M 173.045455 629.991723 
L 254.855617 629.859757 
L 307.214121 629.556561 
L 392.29669 628.780698 
L 467.562039 628.19224 
L 506.830917 628.119822 
L 546.099795 628.287199 
L 611.547925 628.841823 
L 719.537339 629.753664 
L 775.168249 629.947136 
L 824.254347 629.991723 
L 824.254347 629.991723 
" style="fill:none;stroke:#6cad31;stroke-linecap:square;stroke-width:1.5;"/>
   </g>
   <g id="line2d_19">
    <path clip-path="url(#pe0c075370c)" d="M 249.537449 629.989801 
L 326.449189 629.848604 
L 372.596233 629.540151 
L 492.578547 628.519068 
L 529.496183 628.60971 
L 834.066674 629.977188 
L 861.7549 629.992091 
L 861.7549 629.992091 
" style="fill:none;stroke:#97a431;stroke-linecap:square;stroke-width:1.5;"/>
   </g>
   <g id="line2d_20">
    <path clip-path="url(#pe0c075370c)" d="M 214.579505 629.989671 
L 274.543217 629.854814 
L 310.521443 629.568018 
L 346.49967 629.061848 
L 388.474268 628.236646 
L 442.441608 626.903126 
L 469.425278 626.365781 
L 490.412577 626.1822 
L 511.399876 626.246713 
L 535.385361 626.559482 
L 727.269237 629.66862 
L 763.247464 629.902786 
L 811.218433 629.989439 
L 811.218433 629.989439 
" style="fill:none;stroke:#b39b32;stroke-linecap:square;stroke-width:1.5;"/>
   </g>
   <g id="line2d_21">
    <path clip-path="url(#pe0c075370c)" d="M 507.386482 629.983397 
L 539.648778 629.827146 
L 559.812713 629.508828 
L 582.665173 628.895541 
L 610.894682 628.143147 
L 628.370092 627.904272 
L 647.189765 627.866054 
L 666.009438 628.047385 
L 684.82911 628.462284 
L 734.566817 629.727302 
L 756.075014 629.927922 
L 774.894687 629.983397 
L 774.894687 629.983397 
" style="fill:none;stroke:#ce9032;stroke-linecap:square;stroke-width:1.5;"/>
   </g>
   <g id="line2d_22">
    <path clip-path="url(#pe0c075370c)" d="M 306.950802 629.404636 
L 311.949704 628.952399 
L 316.948606 628.222061 
L 319.448057 627.714786 
L 321.947508 627.088896 
L 324.446959 626.324406 
L 326.94641 625.400015 
L 329.445861 624.293543 
L 331.945312 622.982499 
L 334.444763 621.444779 
L 336.944214 619.659469 
L 339.443665 617.607747 
L 341.943116 615.273822 
L 344.442567 612.645893 
L 346.942018 609.717052 
L 349.441469 606.486085 
L 351.94092 602.958109 
L 354.440371 599.144994 
L 356.939822 595.06552 
L 361.938724 586.216035 
L 366.937626 576.685152 
L 379.434881 552.206121 
L 384.433783 543.0851 
L 386.933234 538.812687 
L 389.432685 534.76404 
L 391.932136 530.955081 
L 394.431587 527.395696 
L 396.931037 524.090298 
L 399.430488 521.038633 
L 401.929939 518.236757 
L 404.42939 515.678105 
L 406.928841 513.354571 
L 409.428292 511.257507 
L 411.927743 509.378582 
L 414.427194 507.710433 
L 416.926645 506.247063 
L 419.426096 504.983973 
L 421.925547 503.918018 
L 424.424998 503.047005 
L 426.924449 502.369088 
L 429.4239 501.881992 
L 431.923351 501.582158 
L 434.422802 501.463864 
L 436.922253 501.518419 
L 439.421704 501.733495 
L 441.921155 502.092658 
L 446.920057 503.156034 
L 459.417312 506.437517 
L 461.916763 506.929474 
L 464.416214 507.290548 
L 466.915665 507.49457 
L 469.415116 507.520797 
L 471.914567 507.35484 
L 474.414018 506.989344 
L 476.913469 506.424376 
L 479.41292 505.667534 
L 481.912371 504.733764 
L 484.411822 503.644919 
L 489.410723 501.119758 
L 499.408527 495.747741 
L 501.907978 494.58809 
L 504.407429 493.588991 
L 506.90688 492.791183 
L 509.406331 492.232154 
L 511.905782 491.945253 
L 514.405233 491.958898 
L 516.904684 492.295902 
L 519.404135 492.972917 
L 521.903586 494.000041 
L 524.403037 495.380576 
L 526.902488 497.11097 
L 529.401939 499.180954 
L 531.90139 501.57387 
L 534.400841 504.267194 
L 536.900292 507.233241 
L 539.399743 510.440022 
L 544.398645 517.43226 
L 549.397547 524.940804 
L 561.894802 544.047643 
L 566.893704 551.206444 
L 571.892606 557.86207 
L 576.891508 563.95205 
L 581.890409 569.468229 
L 586.889311 574.442922 
L 591.888213 578.933494 
L 596.887115 583.007368 
L 601.886017 586.728868 
L 606.884919 590.148946 
L 611.883821 593.298658 
L 616.882723 596.187114 
L 621.881625 598.804277 
L 626.880527 601.128312 
L 631.879429 603.136259 
L 636.878331 604.81587 
L 641.877233 606.175879 
L 646.876135 607.252044 
L 651.875037 608.107139 
L 661.872841 609.496539 
L 669.371194 610.605802 
L 674.370095 611.503674 
L 679.368997 612.562775 
L 686.86735 614.435563 
L 696.865154 617.261222 
L 709.362409 620.759986 
L 716.860762 622.616885 
L 724.359115 624.229269 
L 731.857468 625.598186 
L 739.355821 626.74152 
L 746.854174 627.677169 
L 754.352527 628.418886 
L 761.85088 628.980543 
L 771.848683 629.484162 
L 781.846487 629.768814 
L 796.843193 629.945798 
L 804.341546 629.976637 
L 804.341546 629.976637 
" style="fill:none;stroke:#f77732;stroke-linecap:square;stroke-width:1.5;"/>
   </g>
   <g id="line2d_23">
    <path clip-path="url(#pe0c075370c)" d="M 319.828487 627.444236 
L 322.914548 626.108586 
L 326.000608 624.19193 
L 329.086669 621.501673 
L 332.172729 617.808438 
L 335.25879 612.849927 
L 338.344851 606.33969 
L 341.430911 597.981391 
L 344.516972 587.488486 
L 347.603032 574.608357 
L 350.689093 559.148922 
L 353.775153 541.004874 
L 356.861214 520.180076 
L 359.947275 496.802572 
L 363.033335 471.129246 
L 366.119396 443.538371 
L 372.291517 384.596365 
L 378.463638 324.462335 
L 381.549699 295.376296 
L 384.635759 267.611825 
L 387.72182 241.572785 
L 390.807881 217.576205 
L 393.893941 195.855536 
L 396.980002 176.570126 
L 400.066062 159.817215 
L 403.152123 145.643131 
L 406.238184 134.05152 
L 409.324244 125.007991 
L 412.410305 118.442004 
L 415.496365 114.247679 
L 418.582426 112.285338 
L 421.668487 112.385002 
L 424.754547 114.352037 
L 427.840608 117.974159 
L 430.926668 123.028354 
L 434.012729 129.286289 
L 437.09879 136.517304 
L 440.18485 144.489018 
L 446.356971 161.71163 
L 452.529093 179.045786 
L 455.615153 187.168121 
L 458.701214 194.643086 
L 461.787274 201.295727 
L 464.873335 206.9971 
L 467.959396 211.675753 
L 471.045456 215.326198 
L 474.131517 218.013155 
L 477.217577 219.870713 
L 480.303638 221.096038 
L 489.56182 223.620296 
L 492.64788 225.053578 
L 495.733941 227.246541 
L 498.820001 230.423296 
L 501.906062 234.752943 
L 504.992123 240.343993 
L 508.078183 247.245067 
L 511.164244 255.450695 
L 514.250304 264.910207 
L 517.336365 275.537408 
L 520.422426 287.218997 
L 523.508486 299.820532 
L 526.594547 313.189773 
L 532.766668 341.542179 
L 542.02485 385.187743 
L 545.11091 399.223257 
L 548.196971 412.689338 
L 551.283032 425.434579 
L 554.369092 437.343688 
L 557.455153 448.342433 
L 560.541213 458.399051 
L 563.627274 467.522157 
L 566.713335 475.755614 
L 569.799395 483.171131 
L 572.885456 489.859493 
L 575.971516 495.92134 
L 579.057577 501.458347 
L 582.143638 506.565525 
L 585.229698 511.325261 
L 588.315759 515.803466 
L 591.401819 520.048013 
L 594.48788 524.089383 
L 597.573941 527.943151 
L 600.660001 531.613803 
L 603.746062 535.099217 
L 606.832122 538.395172 
L 609.918183 541.499332 
L 613.004244 544.414341 
L 616.090304 547.149815 
L 622.262425 552.159472 
L 628.434546 556.750924 
L 637.692728 563.484371 
L 643.864849 568.236667 
L 650.036971 573.340493 
L 656.209092 578.752068 
L 668.553334 589.81558 
L 674.725455 595.038052 
L 677.811516 597.480702 
L 680.897577 599.779739 
L 683.983637 601.914216 
L 687.069698 603.865961 
L 690.155758 605.62051 
L 693.241819 607.168146 
L 696.32788 608.504846 
L 699.41394 609.632969 
L 702.500001 610.561497 
L 705.586061 611.305758 
L 708.672122 611.886588 
L 714.844243 612.660584 
L 721.016364 613.102595 
L 739.532728 614.125383 
L 751.87697 615.108396 
L 764.221213 616.288809 
L 770.393334 617.029837 
L 776.565455 617.959282 
L 782.737576 619.124231 
L 788.909697 620.51314 
L 804.34 624.23297 
L 810.512122 625.392915 
L 816.684243 626.179087 
L 822.856364 626.575673 
L 829.028485 626.649524 
L 838.286667 626.416815 
L 850.630909 626.085619 
L 856.803031 626.08818 
L 862.975152 626.247249 
L 872.233334 626.770673 
L 884.577576 627.818406 
L 896.921818 628.859783 
L 906.18 629.418958 
L 915.438182 629.750319 
L 927.782424 629.938448 
L 933.954545 629.972883 
L 933.954545 629.972883 
" style="fill:none;stroke:#f77189;stroke-linecap:square;stroke-width:1.5;"/>
   </g>
   <g id="patch_3">
    <path d="M 135 630 
L 135 86.4 
" style="fill:none;stroke:#000000;stroke-linecap:square;stroke-linejoin:miter;stroke-width:0.8;"/>
   </g>
   <g id="patch_4">
    <path d="M 972 630 
L 972 86.4 
" style="fill:none;stroke:#000000;stroke-linecap:square;stroke-linejoin:miter;stroke-width:0.8;"/>
   </g>
   <g id="patch_5">
    <path d="M 135 630 
L 972 630 
" style="fill:none;stroke:#000000;stroke-linecap:square;stroke-linejoin:miter;stroke-width:0.8;"/>
   </g>
   <g id="patch_6">
    <path d="M 135 86.4 
L 972 86.4 
" style="fill:none;stroke:#000000;stroke-linecap:square;stroke-linejoin:miter;stroke-width:0.8;"/>
   </g>
   <g id="legend_1">
    <g id="patch_7">
     <path d="M 872.13125 343.928125 
L 965 343.928125 
Q 967 343.928125 967 341.928125 
L 967 93.4 
Q 967 91.4 965 91.4 
L 872.13125 91.4 
Q 870.13125 91.4 870.13125 93.4 
L 870.13125 341.928125 
Q 870.13125 343.928125 872.13125 343.928125 
z
" style="fill:#ffffff;opacity:0.8;stroke:#cccccc;stroke-linejoin:miter;"/>
    </g>
    <g id="text_15">
     <!-- Original language -->
     <defs>
      <path d="M 39.40625 66.21875 
Q 28.65625 66.21875 22.328125 58.203125 
Q 16.015625 50.203125 16.015625 36.375 
Q 16.015625 22.609375 22.328125 14.59375 
Q 28.65625 6.59375 39.40625 6.59375 
Q 50.140625 6.59375 56.421875 14.59375 
Q 62.703125 22.609375 62.703125 36.375 
Q 62.703125 50.203125 56.421875 58.203125 
Q 50.140625 66.21875 39.40625 66.21875 
z
M 39.40625 74.21875 
Q 54.734375 74.21875 63.90625 63.9375 
Q 73.09375 53.65625 73.09375 36.375 
Q 73.09375 19.140625 63.90625 8.859375 
Q 54.734375 -1.421875 39.40625 -1.421875 
Q 24.03125 -1.421875 14.8125 8.828125 
Q 5.609375 19.09375 5.609375 36.375 
Q 5.609375 53.65625 14.8125 63.9375 
Q 24.03125 74.21875 39.40625 74.21875 
z
" id="DejaVuSans-79"/>
      <path d="M 41.109375 46.296875 
Q 39.59375 47.171875 37.8125 47.578125 
Q 36.03125 48 33.890625 48 
Q 26.265625 48 22.1875 43.046875 
Q 18.109375 38.09375 18.109375 28.8125 
L 18.109375 0 
L 9.078125 0 
L 9.078125 54.6875 
L 18.109375 54.6875 
L 18.109375 46.1875 
Q 20.953125 51.171875 25.484375 53.578125 
Q 30.03125 56 36.53125 56 
Q 37.453125 56 38.578125 55.875 
Q 39.703125 55.765625 41.0625 55.515625 
z
" id="DejaVuSans-114"/>
      <path d="M 9.421875 75.984375 
L 18.40625 75.984375 
L 18.40625 0 
L 9.421875 0 
z
" id="DejaVuSans-108"/>
      <path id="DejaVuSans-32"/>
      <path d="M 8.5 21.578125 
L 8.5 54.6875 
L 17.484375 54.6875 
L 17.484375 21.921875 
Q 17.484375 14.15625 20.5 10.265625 
Q 23.53125 6.390625 29.59375 6.390625 
Q 36.859375 6.390625 41.078125 11.03125 
Q 45.3125 15.671875 45.3125 23.6875 
L 45.3125 54.6875 
L 54.296875 54.6875 
L 54.296875 0 
L 45.3125 0 
L 45.3125 8.40625 
Q 42.046875 3.421875 37.71875 1 
Q 33.40625 -1.421875 27.6875 -1.421875 
Q 18.265625 -1.421875 13.375 4.4375 
Q 8.5 10.296875 8.5 21.578125 
z
M 31.109375 56 
z
" id="DejaVuSans-117"/>
     </defs>
     <g transform="translate(874.13125 102.998437)scale(0.1 -0.1)">
      <use xlink:href="#DejaVuSans-79"/>
      <use x="78.710938" xlink:href="#DejaVuSans-114"/>
      <use x="119.824219" xlink:href="#DejaVuSans-105"/>
      <use x="147.607422" xlink:href="#DejaVuSans-103"/>
      <use x="211.083984" xlink:href="#DejaVuSans-105"/>
      <use x="238.867188" xlink:href="#DejaVuSans-110"/>
      <use x="302.246094" xlink:href="#DejaVuSans-97"/>
      <use x="363.525391" xlink:href="#DejaVuSans-108"/>
      <use x="391.308594" xlink:href="#DejaVuSans-32"/>
      <use x="423.095703" xlink:href="#DejaVuSans-108"/>
      <use x="450.878906" xlink:href="#DejaVuSans-97"/>
      <use x="512.158203" xlink:href="#DejaVuSans-110"/>
      <use x="575.537109" xlink:href="#DejaVuSans-103"/>
      <use x="639.013672" xlink:href="#DejaVuSans-117"/>
      <use x="702.392578" xlink:href="#DejaVuSans-97"/>
      <use x="763.671875" xlink:href="#DejaVuSans-103"/>
      <use x="827.148438" xlink:href="#DejaVuSans-101"/>
     </g>
    </g>
    <g id="line2d_24">
     <path d="M 898.314844 114.176562 
L 918.314844 114.176562 
" style="fill:none;stroke:#f77189;stroke-linecap:square;stroke-width:1.5;"/>
    </g>
    <g id="line2d_25"/>
    <g id="text_16">
     <!-- en -->
     <g transform="translate(926.314844 117.676562)scale(0.1 -0.1)">
      <use xlink:href="#DejaVuSans-101"/>
      <use x="61.523438" xlink:href="#DejaVuSans-110"/>
     </g>
    </g>
    <g id="line2d_26">
     <path d="M 898.314844 128.854687 
L 918.314844 128.854687 
" style="fill:none;stroke:#f77732;stroke-linecap:square;stroke-width:1.5;"/>
    </g>
    <g id="line2d_27"/>
    <g id="text_17">
     <!-- - -->
     <defs>
      <path d="M 4.890625 31.390625 
L 31.203125 31.390625 
L 31.203125 23.390625 
L 4.890625 23.390625 
z
" id="DejaVuSans-45"/>
     </defs>
     <g transform="translate(926.314844 132.354687)scale(0.1 -0.1)">
      <use xlink:href="#DejaVuSans-45"/>
     </g>
    </g>
    <g id="line2d_28">
     <path d="M 898.314844 143.532812 
L 918.314844 143.532812 
" style="fill:none;stroke:#ce9032;stroke-linecap:square;stroke-width:1.5;"/>
    </g>
    <g id="line2d_29"/>
    <g id="text_18">
     <!-- ta -->
     <g transform="translate(926.314844 147.032812)scale(0.1 -0.1)">
      <use xlink:href="#DejaVuSans-116"/>
      <use x="39.208984" xlink:href="#DejaVuSans-97"/>
     </g>
    </g>
    <g id="line2d_30">
     <path d="M 898.314844 158.210938 
L 918.314844 158.210938 
" style="fill:none;stroke:#b39b32;stroke-linecap:square;stroke-width:1.5;"/>
    </g>
    <g id="line2d_31"/>
    <g id="text_19">
     <!-- fr -->
     <defs>
      <path d="M 37.109375 75.984375 
L 37.109375 68.5 
L 28.515625 68.5 
Q 23.6875 68.5 21.796875 66.546875 
Q 19.921875 64.59375 19.921875 59.515625 
L 19.921875 54.6875 
L 34.71875 54.6875 
L 34.71875 47.703125 
L 19.921875 47.703125 
L 19.921875 0 
L 10.890625 0 
L 10.890625 47.703125 
L 2.296875 47.703125 
L 2.296875 54.6875 
L 10.890625 54.6875 
L 10.890625 58.5 
Q 10.890625 67.625 15.140625 71.796875 
Q 19.390625 75.984375 28.609375 75.984375 
z
" id="DejaVuSans-102"/>
     </defs>
     <g transform="translate(926.314844 161.710938)scale(0.1 -0.1)">
      <use xlink:href="#DejaVuSans-102"/>
      <use x="35.205078" xlink:href="#DejaVuSans-114"/>
     </g>
    </g>
    <g id="line2d_32">
     <path d="M 898.314844 172.889062 
L 918.314844 172.889062 
" style="fill:none;stroke:#97a431;stroke-linecap:square;stroke-width:1.5;"/>
    </g>
    <g id="line2d_33"/>
    <g id="text_20">
     <!-- it -->
     <g transform="translate(926.314844 176.389062)scale(0.1 -0.1)">
      <use xlink:href="#DejaVuSans-105"/>
      <use x="27.783203" xlink:href="#DejaVuSans-116"/>
     </g>
    </g>
    <g id="line2d_34">
     <path d="M 898.314844 187.567187 
L 918.314844 187.567187 
" style="fill:none;stroke:#6cad31;stroke-linecap:square;stroke-width:1.5;"/>
    </g>
    <g id="line2d_35"/>
    <g id="text_21">
     <!-- tr -->
     <g transform="translate(926.314844 191.067187)scale(0.1 -0.1)">
      <use xlink:href="#DejaVuSans-116"/>
      <use x="39.208984" xlink:href="#DejaVuSans-114"/>
     </g>
    </g>
    <g id="line2d_36">
     <path d="M 898.314844 202.245312 
L 918.314844 202.245312 
" style="fill:none;stroke:#32b166;stroke-linecap:square;stroke-width:1.5;"/>
    </g>
    <g id="line2d_37"/>
    <g id="text_22">
     <!-- hi -->
     <defs>
      <path d="M 54.890625 33.015625 
L 54.890625 0 
L 45.90625 0 
L 45.90625 32.71875 
Q 45.90625 40.484375 42.875 44.328125 
Q 39.84375 48.1875 33.796875 48.1875 
Q 26.515625 48.1875 22.3125 43.546875 
Q 18.109375 38.921875 18.109375 30.90625 
L 18.109375 0 
L 9.078125 0 
L 9.078125 75.984375 
L 18.109375 75.984375 
L 18.109375 46.1875 
Q 21.34375 51.125 25.703125 53.5625 
Q 30.078125 56 35.796875 56 
Q 45.21875 56 50.046875 50.171875 
Q 54.890625 44.34375 54.890625 33.015625 
z
" id="DejaVuSans-104"/>
     </defs>
     <g transform="translate(926.314844 205.745312)scale(0.1 -0.1)">
      <use xlink:href="#DejaVuSans-104"/>
      <use x="63.378906" xlink:href="#DejaVuSans-105"/>
     </g>
    </g>
    <g id="line2d_38">
     <path d="M 898.314844 216.923437 
L 918.314844 216.923437 
" style="fill:none;stroke:#34af8e;stroke-linecap:square;stroke-width:1.5;"/>
    </g>
    <g id="line2d_39"/>
    <g id="text_23">
     <!-- de -->
     <defs>
      <path d="M 45.40625 46.390625 
L 45.40625 75.984375 
L 54.390625 75.984375 
L 54.390625 0 
L 45.40625 0 
L 45.40625 8.203125 
Q 42.578125 3.328125 38.25 0.953125 
Q 33.9375 -1.421875 27.875 -1.421875 
Q 17.96875 -1.421875 11.734375 6.484375 
Q 5.515625 14.40625 5.515625 27.296875 
Q 5.515625 40.1875 11.734375 48.09375 
Q 17.96875 56 27.875 56 
Q 33.9375 56 38.25 53.625 
Q 42.578125 51.265625 45.40625 46.390625 
z
M 14.796875 27.296875 
Q 14.796875 17.390625 18.875 11.75 
Q 22.953125 6.109375 30.078125 6.109375 
Q 37.203125 6.109375 41.296875 11.75 
Q 45.40625 17.390625 45.40625 27.296875 
Q 45.40625 37.203125 41.296875 42.84375 
Q 37.203125 48.484375 30.078125 48.484375 
Q 22.953125 48.484375 18.875 42.84375 
Q 14.796875 37.203125 14.796875 27.296875 
z
" id="DejaVuSans-100"/>
     </defs>
     <g transform="translate(926.314844 220.423437)scale(0.1 -0.1)">
      <use xlink:href="#DejaVuSans-100"/>
      <use x="63.476562" xlink:href="#DejaVuSans-101"/>
     </g>
    </g>
    <g id="line2d_40">
     <path d="M 898.314844 231.601562 
L 918.314844 231.601562 
" style="fill:none;stroke:#36ada4;stroke-linecap:square;stroke-width:1.5;"/>
    </g>
    <g id="line2d_41"/>
    <g id="text_24">
     <!-- ja -->
     <defs>
      <path d="M 9.421875 54.6875 
L 18.40625 54.6875 
L 18.40625 -0.984375 
Q 18.40625 -11.421875 14.421875 -16.109375 
Q 10.453125 -20.796875 1.609375 -20.796875 
L -1.8125 -20.796875 
L -1.8125 -13.1875 
L 0.59375 -13.1875 
Q 5.71875 -13.1875 7.5625 -10.8125 
Q 9.421875 -8.453125 9.421875 -0.984375 
z
M 9.421875 75.984375 
L 18.40625 75.984375 
L 18.40625 64.59375 
L 9.421875 64.59375 
z
" id="DejaVuSans-106"/>
     </defs>
     <g transform="translate(926.314844 235.101562)scale(0.1 -0.1)">
      <use xlink:href="#DejaVuSans-106"/>
      <use x="27.783203" xlink:href="#DejaVuSans-97"/>
     </g>
    </g>
    <g id="line2d_42">
     <path d="M 898.314844 246.279687 
L 918.314844 246.279687 
" style="fill:none;stroke:#37abb8;stroke-linecap:square;stroke-width:1.5;"/>
    </g>
    <g id="line2d_43"/>
    <g id="text_25">
     <!-- kn -->
     <defs>
      <path d="M 9.078125 75.984375 
L 18.109375 75.984375 
L 18.109375 31.109375 
L 44.921875 54.6875 
L 56.390625 54.6875 
L 27.390625 29.109375 
L 57.625 0 
L 45.90625 0 
L 18.109375 26.703125 
L 18.109375 0 
L 9.078125 0 
z
" id="DejaVuSans-107"/>
     </defs>
     <g transform="translate(926.314844 249.779687)scale(0.1 -0.1)">
      <use xlink:href="#DejaVuSans-107"/>
      <use x="57.910156" xlink:href="#DejaVuSans-110"/>
     </g>
    </g>
    <g id="line2d_44">
     <path d="M 898.314844 260.957812 
L 918.314844 260.957812 
" style="fill:none;stroke:#39a7d0;stroke-linecap:square;stroke-width:1.5;"/>
    </g>
    <g id="line2d_45"/>
    <g id="text_26">
     <!-- es -->
     <g transform="translate(926.314844 264.457812)scale(0.1 -0.1)">
      <use xlink:href="#DejaVuSans-101"/>
      <use x="61.523438" xlink:href="#DejaVuSans-115"/>
     </g>
    </g>
    <g id="line2d_46">
     <path d="M 898.314844 275.635937 
L 918.314844 275.635937 
" style="fill:none;stroke:#5a9ef4;stroke-linecap:square;stroke-width:1.5;"/>
    </g>
    <g id="line2d_47"/>
    <g id="text_27">
     <!-- he -->
     <g transform="translate(926.314844 279.135937)scale(0.1 -0.1)">
      <use xlink:href="#DejaVuSans-104"/>
      <use x="63.378906" xlink:href="#DejaVuSans-101"/>
     </g>
    </g>
    <g id="line2d_48">
     <path d="M 898.314844 290.314062 
L 918.314844 290.314062 
" style="fill:none;stroke:#a48cf4;stroke-linecap:square;stroke-width:1.5;"/>
    </g>
    <g id="line2d_49"/>
    <g id="text_28">
     <!-- sv -->
     <defs>
      <path d="M 2.984375 54.6875 
L 12.5 54.6875 
L 29.59375 8.796875 
L 46.6875 54.6875 
L 56.203125 54.6875 
L 35.6875 0 
L 23.484375 0 
z
" id="DejaVuSans-118"/>
     </defs>
     <g transform="translate(926.314844 293.814062)scale(0.1 -0.1)">
      <use xlink:href="#DejaVuSans-115"/>
      <use x="52.099609" xlink:href="#DejaVuSans-118"/>
     </g>
    </g>
    <g id="line2d_50">
     <path d="M 898.314844 304.992187 
L 918.314844 304.992187 
" style="fill:none;stroke:#d673f4;stroke-linecap:square;stroke-width:1.5;"/>
    </g>
    <g id="line2d_51"/>
    <g id="text_29">
     <!-- ru -->
     <g transform="translate(926.314844 308.492187)scale(0.1 -0.1)">
      <use xlink:href="#DejaVuSans-114"/>
      <use x="41.113281" xlink:href="#DejaVuSans-117"/>
     </g>
    </g>
    <g id="line2d_52">
     <path d="M 898.314844 319.670312 
L 918.314844 319.670312 
" style="fill:none;stroke:#f561dd;stroke-linecap:square;stroke-width:1.5;"/>
    </g>
    <g id="line2d_53"/>
    <g id="text_30">
     <!-- nl -->
     <g transform="translate(926.314844 323.170312)scale(0.1 -0.1)">
      <use xlink:href="#DejaVuSans-110"/>
      <use x="63.378906" xlink:href="#DejaVuSans-108"/>
     </g>
    </g>
    <g id="line2d_54">
     <path d="M 898.314844 334.348437 
L 918.314844 334.348437 
" style="fill:none;stroke:#f66ab5;stroke-linecap:square;stroke-width:1.5;"/>
    </g>
    <g id="line2d_55"/>
    <g id="text_31">
     <!-- da -->
     <g transform="translate(926.314844 337.848437)scale(0.1 -0.1)">
      <use xlink:href="#DejaVuSans-100"/>
      <use x="63.476562" xlink:href="#DejaVuSans-97"/>
     </g>
    </g>
   </g>
  </g>
 </g>
 <defs>
  <clipPath id="pe0c075370c">
   <rect height="543.6" width="837" x="135" y="86.4"/>
  </clipPath>
 </defs>
</svg>
